<svg xmlns="http://www.w3.org/2000/svg" viewBox="0 0 80 80">
  <!-- Shrimp body segments -->
  <path d="M55 18 C62 22 65 30 60 40 C55 50 45 58 35 62 C28 65 22 63 20 57 C18 51 22 44 30 40 C36 37 40 32 38 26 C37 22 40 17 45 16 Z" fill="#e8724a"/>
  <!-- Body highlight -->
  <path d="M50 20 C56 24 58 32 54 41 C50 50 41 57 33 60 C27 62 23 60 22 55 C22 51 25 45 32 41 C38 38 42 33 41 27 C40 23 43 19 47 18 Z" fill="#f09070"/>
  <!-- Segments lines -->
  <path d="M44 24 Q52 30 50 38" stroke="#c85030" stroke-width="1.2" fill="none"/>
  <path d="M40 30 Q48 36 45 44" stroke="#c85030" stroke-width="1.2" fill="none"/>
  <path d="M36 37 Q43 43 40 51" stroke="#c85030" stroke-width="1.2" fill="none"/>
  <path d="M31 44 Q37 50 34 57" stroke="#c85030" stroke-width="1" fill="none"/>
  <!-- Tail fan -->
  <ellipse cx="22" cy="57" rx="6" ry="4" fill="#e8724a" transform="rotate(30 22 57)"/>
  <ellipse cx="19" cy="60" rx="5" ry="3" fill="#c85030" transform="rotate(10 19 60)"/>
  <ellipse cx="25" cy="61" rx="5" ry="3" fill="#f09070" transform="rotate(50 25 61)"/>
  <!-- Head -->
  <ellipse cx="48" cy="17" rx="8" ry="6" fill="#e8724a" transform="rotate(-20 48 17)"/>
  <ellipse cx="48" cy="16" rx="6" ry="4" fill="#f09070" transform="rotate(-20 48 16)"/>
  <!-- Eye -->
  <circle cx="52" cy="14" r="2.5" fill="#1a1a1a"/>
  <circle cx="53" cy="13" r="1" fill="white"/>
  <!-- Antennae -->
  <path d="M53 12 Q60 6 65 8" stroke="#c85030" stroke-width="1.2" fill="none"/>
  <path d="M52 11 Q56 3 62 2" stroke="#c85030" stroke-width="0.8" fill="none"/>
  <!-- Legs -->
  <path d="M42 32 Q36 28 32 30" stroke="#c85030" stroke-width="1" fill="none"/>
  <path d="M39 38 Q33 34 29 36" stroke="#c85030" stroke-width="1" fill="none"/>
  <path d="M36 44 Q30 42 27 44" stroke="#c85030" stroke-width="1" fill="none"/>
</svg>
